<svg width="65" height="32" viewBox="0 0 65 32" fill="none" xmlns="http://www.w3.org/2000/svg">
<path d="M13.2 22.76C13.16 22.8 13.1 22.8067 13.02 22.78C12.98 22.7667 12.94 22.7667 12.9 22.78C12.8733 22.78 12.8533 22.8267 12.84 22.92C12.5333 22.8133 12.2867 22.64 12.1 22.4C11.9133 22.1467 11.72 21.9067 11.52 21.68C11.5333 21.56 11.5467 21.44 11.56 21.32C11.5733 21.1867 11.58 21.06 11.58 20.94C11.62 20.58 11.6467 20.24 11.66 19.92C11.6867 19.5867 11.68 19.28 11.64 19C11.6 18.7333 11.5133 18.48 11.38 18.24C11.26 18 11.0867 17.7933 10.86 17.62C10.8333 17.5533 10.8333 17.5133 10.86 17.5C10.8867 17.4867 10.92 17.4733 10.96 17.46C11.0533 17.46 11.0933 17.4333 11.08 17.38C10.9867 17.3133 10.86 17.3067 10.7 17.36C10.5533 17.4133 10.4133 17.48 10.28 17.56C10.16 18.1467 10.1 18.82 10.1 19.58C10.1133 20.34 10.14 21.1467 10.18 22C10.18 22.0667 10.18 22.1333 10.18 22.2C10.1933 22.2533 10.2 22.3133 10.2 22.38C10.2267 23.1133 10.24 23.8667 10.24 24.64C10.24 25.4 10.1867 26.1533 10.08 26.9C9.84 27.0067 9.63333 27.0267 9.46 26.96C9.3 26.8933 9.13333 26.8067 8.96 26.7C8.90667 26.66 8.85333 26.62 8.8 26.58C8.74667 26.54 8.68667 26.5067 8.62 26.48C8.36667 26.3467 8.08 26.22 7.76 26.1C7.45333 25.9933 7.16 25.8667 6.88 25.72C6.61333 25.56 6.41333 25.36 6.28 25.12L6.44 25.18C6.44 25.06 6.39333 24.9733 6.3 24.92C6.20667 24.8533 6.11333 24.7933 6.02 24.74C5.94 24.6867 5.88667 24.6067 5.86 24.5C5.94 24.5133 6.02 24.5333 6.1 24.56C6.18 24.5733 6.26667 24.5933 6.36 24.62C6.70667 24.7 7.07333 24.7733 7.46 24.84C7.86 24.8933 8.21333 24.8467 8.52 24.7C8.52 24.5533 8.52667 24.4067 8.54 24.26C8.55333 24.1133 8.56667 23.9733 8.58 23.84C8.59333 23.56 8.60667 23.2867 8.62 23.02C8.63333 22.74 8.61333 22.46 8.56 22.18C8.2 22.3933 7.73333 22.56 7.16 22.68C6.58667 22.7867 6.06667 22.86 5.6 22.9C5.6 22.9533 5.59333 23.02 5.58 23.1C5.58 23.18 5.58 23.2667 5.58 23.36C5.55333 23.76 5.53333 24.26 5.52 24.86C5.50667 25.46 5.52667 25.9933 5.58 26.46C5.46 26.4733 5.38667 26.52 5.36 26.6C5.33333 26.68 5.26667 26.7333 5.16 26.76C4.82667 26.6133 4.56 26.3867 4.36 26.08C4.17333 25.7867 3.94667 25.5333 3.68 25.32C3.98667 23.9733 4.18667 22.6867 4.28 21.46C4.37333 20.22 4.44 18.9533 4.48 17.66C4.25333 17.5133 3.99333 17.4067 3.7 17.34C3.42 17.2733 3.19333 17.14 3.02 16.94C3.44667 16.58 3.88667 16.34 4.34 16.22C4.80667 16.0867 5.31333 16.0067 5.86 15.98C6.40667 15.9533 7 15.92 7.64 15.88C7.77333 15.5867 7.97333 15.44 8.24 15.44C8.52 15.44 8.81333 15.4667 9.12 15.52C9.24 15.5467 9.36 15.5733 9.48 15.6C9.6 15.6133 9.71333 15.62 9.82 15.62C10.02 15.7667 10.2333 15.8933 10.46 16C10.7 16.1067 10.9133 16.2333 11.1 16.38C11.3 16.5133 11.4333 16.72 11.5 17C11.4733 17.0667 11.42 17.1133 11.34 17.14C11.2733 17.1667 11.2333 17.2267 11.22 17.32C11.5 17.28 11.7267 17.28 11.9 17.32C12.0733 17.36 12.2467 17.4067 12.42 17.46C12.5133 17.5 12.6067 17.54 12.7 17.58C12.8067 17.6067 12.92 17.6333 13.04 17.66C13.1333 18.1 13.1733 18.54 13.16 18.98C13.1467 19.4067 13.1267 19.8333 13.1 20.26C13.0733 20.7 13.0533 21.1333 13.04 21.56C13.04 21.9733 13.0933 22.3733 13.2 22.76ZM19.06 14.36C18.8333 14.7067 18.5333 14.88 18.16 14.88C17.8 14.88 17.3867 14.8333 16.92 14.74C16.7067 14.7 16.48 14.6667 16.24 14.64C16.0133 14.6 15.7733 14.5733 15.52 14.56C14.3067 14.52 13.14 14.5067 12.02 14.52C10.9133 14.52 9.88 14.5467 8.92 14.6C8.28 14.6267 7.65333 14.6933 7.04 14.8C6.44 14.9067 5.84 14.9867 5.24 15.04C4.94667 15.0533 4.68 15.1267 4.44 15.26C4.2 15.3933 3.96 15.48 3.72 15.52C3.69333 15.52 3.63333 15.5067 3.54 15.48C3.46 15.44 3.4 15.4267 3.36 15.44C3.30667 15.4533 3.25333 15.4733 3.2 15.5C3.16 15.5267 3.12 15.5467 3.08 15.56C3.04 15.6 2.99333 15.6333 2.94 15.66C2.88667 15.6733 2.83333 15.68 2.78 15.68C2.58 15.6533 2.44 15.58 2.36 15.46C2.29333 15.34 2.16667 15.1933 1.98 15.02C1.95333 14.9933 1.91333 14.9533 1.86 14.9C1.66 14.7267 1.44667 14.5133 1.22 14.26C0.993333 13.9933 0.9 13.7333 0.94 13.48C1.19333 13.4133 1.42667 13.4067 1.64 13.46C1.86667 13.5 2.08 13.56 2.28 13.64C2.4 13.68 2.51333 13.72 2.62 13.76C2.74 13.7867 2.86 13.8067 2.98 13.82C3.26 13.8467 3.53333 13.8467 3.8 13.82C4.08 13.78 4.36667 13.74 4.66 13.7C4.92667 13.66 5.20667 13.6267 5.5 13.6C5.79333 13.56 6.10667 13.54 6.44 13.54C6.36 13.3 6.24 13.1 6.08 12.94C5.92 12.78 5.75333 12.6267 5.58 12.48C5.42 12.32 5.28667 12.1333 5.18 11.92C5.24667 11.64 5.24667 11.4067 5.18 11.22C5.11333 11.0333 5.04 10.86 4.96 10.7C4.90667 10.6067 4.86 10.52 4.82 10.44C4.78 10.3467 4.74667 10.2533 4.72 10.16C4.98667 10.24 5.29333 10.36 5.64 10.52C5.98667 10.6667 6.30667 10.8533 6.6 11.08C6.90667 11.2933 7.11333 11.54 7.22 11.82C7.32667 12.06 7.39333 12.3467 7.42 12.68C7.44667 13 7.38667 13.2533 7.24 13.44C7.78667 13.4133 8.43333 13.4 9.18 13.4C9.94 13.4 10.6467 13.3933 11.3 13.38C11.6467 12.9933 11.9467 12.5733 12.2 12.12C12.4667 11.6667 12.7267 11.2067 12.98 10.74C12.9533 10.6467 12.8933 10.5667 12.8 10.5C12.72 10.42 12.64 10.3467 12.56 10.28C12.4667 10.2133 12.3867 10.1467 12.32 10.08C12.2533 10.0133 12.2267 9.94667 12.24 9.88C12.5467 9.65333 12.9 9.56667 13.3 9.62C13.7133 9.67333 14.0667 9.80667 14.36 10.02C14.6 10.18 14.78 10.3733 14.9 10.6C15.02 10.8267 15.0333 11.0467 14.94 11.26C14.86 11.46 14.6267 11.6267 14.24 11.76C14.16 11.8933 14.0533 12.0467 13.92 12.22C13.7867 12.38 13.6333 12.4333 13.46 12.38C13.46 12.38 13.4667 12.4267 13.48 12.52C13.5067 12.6 13.4733 12.6733 13.38 12.74C13.34 12.66 13.2333 12.7133 13.06 12.9C12.9933 12.9667 12.92 13.0333 12.84 13.1C12.76 13.1667 12.68 13.2 12.6 13.2C12.6 13.2 12.6933 13.2133 12.88 13.24C13.0667 13.2667 13.3267 13.28 13.66 13.28C13.7267 13.28 13.7933 13.28 13.86 13.28C13.9267 13.28 13.9933 13.28 14.06 13.28C14.2733 13.28 14.4867 13.28 14.7 13.28C14.9267 13.28 15.1667 13.2867 15.42 13.3C15.54 13.2733 15.6267 13.22 15.68 13.14C15.7467 13.0467 15.8267 12.9733 15.92 12.92C16.2933 12.9733 16.6867 13.04 17.1 13.12C17.5133 13.2 17.8933 13.3333 18.24 13.52C18.6 13.7067 18.8733 13.9867 19.06 14.36ZM16.7 16.1C16.6733 16.2333 16.6333 16.3667 16.58 16.5C16.54 16.62 16.4867 16.7333 16.42 16.84C16.22 17.5067 16.14 18.24 16.18 19.04C16.22 19.84 16.28 20.66 16.36 21.5C16.3733 21.6067 16.38 21.7133 16.38 21.82C16.3933 21.9133 16.4067 22.0067 16.42 22.1C16.4867 22.7933 16.5267 23.48 16.54 24.16C16.5667 24.8267 16.52 25.4533 16.4 26.04C16.28 26.64 16.04 27.1667 15.68 27.62C15.44 27.58 15.1667 27.4667 14.86 27.28C14.5533 27.0933 14.2267 26.8867 13.88 26.66C13.5333 26.4333 13.18 26.2533 12.82 26.12C12.82 25.8933 12.76 25.6933 12.64 25.52C12.52 25.3333 12.3933 25.1933 12.26 25.1C12.14 24.9933 12.08 24.94 12.08 24.94C12.4267 25.0333 12.8067 25.12 13.22 25.2C13.6467 25.28 14.0867 25.3 14.54 25.26C14.7 24.9133 14.8067 24.5067 14.86 24.04C14.9133 23.56 14.94 23.0533 14.94 22.52C14.9267 21.8533 14.8867 21.1667 14.82 20.46C14.7667 19.74 14.7067 19.0667 14.64 18.44C14.6 17.9733 14.58 17.5 14.58 17.02C14.58 16.5267 14.54 16.1333 14.46 15.84C14.3933 15.6 14.2733 15.4 14.1 15.24C13.94 15.08 13.86 14.8867 13.86 14.66C14.4867 14.7 15.02 14.8533 15.46 15.12C15.9133 15.3867 16.3267 15.7133 16.7 16.1ZM8.5 19.14C8.48667 18.74 8.46667 18.3467 8.44 17.96C8.41333 17.56 8.34667 17.2133 8.24 16.92C7.98667 16.8533 7.72 16.84 7.44 16.88C7.16 16.9067 6.88667 16.9467 6.62 17C6.54 17.0267 6.46 17.0467 6.38 17.06C6.3 17.0733 6.22 17.0867 6.14 17.1C6.04667 17.4067 5.96 17.72 5.88 18.04C5.81333 18.36 5.74667 18.6933 5.68 19.04C5.89333 19.04 6.09333 19.0267 6.28 19C6.46667 18.96 6.64667 18.9267 6.82 18.9C7.14 18.8333 7.43333 18.7933 7.7 18.78C7.98 18.7667 8.24667 18.8867 8.5 19.14ZM8.62 21.74C8.60667 21.5533 8.59333 21.3733 8.58 21.2C8.58 21.0267 8.58 20.86 8.58 20.7C8.59333 20.4733 8.59333 20.26 8.58 20.06C8.56667 19.86 8.52 19.68 8.44 19.52C8.06667 19.8133 7.64 19.9867 7.16 20.04C6.69333 20.0933 6.20667 20.1533 5.7 20.22C5.71333 20.4333 5.71333 20.62 5.7 20.78C5.7 20.9267 5.69333 21.0733 5.68 21.22C5.66667 21.2867 5.65333 21.3533 5.64 21.42C5.64 21.4867 5.64 21.56 5.64 21.64C5.8 21.6267 5.96 21.6067 6.12 21.58C6.28 21.5533 6.44 21.5267 6.6 21.5C6.85333 21.46 7.1 21.4267 7.34 21.4C7.58 21.36 7.81333 21.3533 8.04 21.38C8.08 21.4067 8.14 21.46 8.22 21.54C8.28667 21.62 8.35333 21.6867 8.42 21.74C8.48667 21.7933 8.55333 21.7933 8.62 21.74ZM12.58 12.02C12.5667 12.0333 12.5333 12.06 12.48 12.1C12.3867 12.1933 12.28 12.3133 12.16 12.46C12.04 12.5933 12.0133 12.7467 12.08 12.92C12.1067 12.84 12.14 12.7667 12.18 12.7C12.2333 12.6333 12.2867 12.5667 12.34 12.5C12.4067 12.42 12.46 12.34 12.5 12.26C12.5533 12.18 12.58 12.1 12.58 12.02ZM12.16 12.92C12.1733 13 12.1667 13.06 12.14 13.1C12.1133 13.14 12.0867 13.1733 12.06 13.2C11.9933 13.2533 11.9533 13.3067 11.94 13.36C12.1 13.4 12.1933 13.3667 12.22 13.26C12.26 13.1533 12.2867 13.06 12.3 12.98C12.3 12.9533 12.3 12.9333 12.3 12.92H12.16ZM11.86 13C11.8333 13.0933 11.7667 13.1533 11.66 13.18C11.5667 13.1933 11.52 13.26 11.52 13.38C11.64 13.3933 11.7467 13.3467 11.84 13.24C11.9333 13.1333 11.94 13.0533 11.86 13ZM39.26 21.32C39.2067 21.4667 39.1 21.56 38.94 21.6C38.78 21.64 38.62 21.68 38.46 21.72C38.3133 21.76 38.2 21.8467 38.12 21.98C38.1067 22.2867 38.1 22.6133 38.1 22.96C38.1 23.3067 38.0933 23.6067 38.08 23.86C38.08 23.9267 38.0533 23.9867 38 24.04C37.9467 24.0933 37.9133 24.1733 37.9 24.28C37.9 24.3333 37.9 24.3867 37.9 24.44C37.9133 24.4933 37.9267 24.5467 37.94 24.6C37.9533 24.64 37.96 24.6867 37.96 24.74C37.9733 24.78 37.98 24.82 37.98 24.86C37.9667 25.22 37.88 25.5667 37.72 25.9C37.56 26.22 37.3867 26.52 37.2 26.8C37.2133 26.84 37.2267 26.8533 37.24 26.84C37.2533 26.8267 37.26 26.82 37.26 26.82C37.1933 27.1267 37.04 27.3333 36.8 27.44C36.5733 27.56 36.32 27.5933 36.04 27.54C35.68 27.4733 35.3267 27.2933 34.98 27C34.6467 26.72 34.4267 26.38 34.32 25.98C34.1467 26.1 33.9867 26.1333 33.84 26.08C33.7067 26.0267 33.64 25.9333 33.64 25.8C33.6267 25.5467 33.62 25.2933 33.62 25.04C33.62 24.7867 33.62 24.5333 33.62 24.28C33.62 23.68 33.6067 23.0933 33.58 22.52C33.5667 21.9467 33.5 21.44 33.38 21C33.18 21.0133 32.9933 21.0333 32.82 21.06C32.6467 21.0867 32.4733 21.12 32.3 21.16C32.3267 21.2933 32.3733 21.4 32.44 21.48C32.5067 21.56 32.5467 21.6667 32.56 21.8C32.4933 22.2133 32.4533 22.6267 32.44 23.04C32.44 23.4533 32.4333 23.86 32.42 24.26C32.42 24.58 32.4133 24.9 32.4 25.22C32.4 25.5267 32.3867 25.84 32.36 26.16C32.1867 26.16 32.02 26.1333 31.86 26.08C31.7133 26.04 31.5667 25.9333 31.42 25.76C31.3933 25.48 31.38 25.2067 31.38 24.94C31.38 24.6733 31.38 24.42 31.38 24.18C31.3933 23.66 31.38 23.1733 31.34 22.72C31.3133 22.2667 31.1867 21.8533 30.96 21.48C30.88 21.4667 30.8067 21.4733 30.74 21.5C30.6733 21.5133 30.6133 21.5333 30.56 21.56C30.48 21.5867 30.4067 21.6067 30.34 21.62C30.2867 21.6333 30.2267 21.6133 30.16 21.56C30.04 21.8667 29.9733 22.18 29.96 22.5C29.96 22.82 29.9733 23.14 30 23.46C30.0133 23.7267 30.02 23.9933 30.02 24.26C30.02 24.5267 29.98 24.7733 29.9 25C30.0467 25.3733 30.14 25.7467 30.18 26.12C30.22 26.4933 30.28 26.8333 30.36 27.14C30.0267 27.2067 29.7267 27.16 29.46 27C29.1933 26.84 28.96 26.62 28.76 26.34C28.56 26.06 28.3867 25.7667 28.24 25.46C28.2667 25.4333 28.3 25.4 28.34 25.36C28.5 25.2 28.6467 25.0333 28.78 24.86C28.9133 24.6867 28.96 24.4733 28.92 24.22C28.88 24.2333 28.86 24.2667 28.86 24.32C28.86 24.36 28.86 24.4 28.86 24.44C28.86 24.4667 28.86 24.4867 28.86 24.5C28.8067 24.42 28.78 24.2867 28.78 24.1C28.78 23.9133 28.84 23.7933 28.96 23.74C28.9467 23.6733 28.94 23.6067 28.94 23.54C28.9533 23.4733 28.96 23.44 28.96 23.44C28.92 23.4533 28.8867 23.4933 28.86 23.56C28.8467 23.6267 28.84 23.66 28.84 23.66C28.8133 23.0733 28.72 22.56 28.56 22.12C28.4133 21.68 28.1667 21.3667 27.82 21.18C27.9933 20.8467 28.24 20.66 28.56 20.62C28.88 20.5667 29.2067 20.52 29.54 20.48C29.78 20.4533 30.0133 20.4067 30.24 20.34C30.4667 20.26 30.66 20.1133 30.82 19.9C30.7933 19.74 30.8 19.6 30.84 19.48C30.8933 19.36 30.9467 19.2533 31 19.16C31.0267 19.1067 31.0467 19.06 31.06 19.02C31.0867 18.9667 31.1067 18.92 31.12 18.88C30.8 18.88 30.4667 18.8667 30.12 18.84C29.7867 18.8 29.4867 18.7 29.22 18.54C28.9533 18.3667 28.76 18.0933 28.64 17.72C29.2267 17.6267 29.9 17.5667 30.66 17.54C31.42 17.5 32.1733 17.4667 32.92 17.44C33.1467 17.4267 33.3933 17.4067 33.66 17.38C33.9267 17.3533 34.1667 17.3133 34.38 17.26C34.4733 17.2333 34.5533 17.1933 34.62 17.14C34.7 17.0733 34.7867 17.04 34.88 17.04C35.1733 17.04 35.4533 17.1133 35.72 17.26C35.9867 17.3933 36.2333 17.56 36.46 17.76C36.7 17.9467 36.9067 18.12 37.08 18.28C36.6267 18.4 36.1467 18.46 35.64 18.46C35.1467 18.46 34.6733 18.46 34.22 18.46C33.7667 18.46 33.3733 18.52 33.04 18.64C32.9467 18.8133 32.82 18.9667 32.66 19.1C32.5133 19.22 32.3667 19.3467 32.22 19.48C32.0867 19.6133 31.9867 19.7933 31.92 20.02C32.2267 20.14 32.56 20.1933 32.92 20.18C33.28 20.1533 33.64 20.1067 34 20.04C34.28 20 34.5533 19.9667 34.82 19.94C35.0867 19.9133 35.34 19.92 35.58 19.96C35.6333 19.9733 35.64 19.9467 35.6 19.88C35.5467 19.8 35.56 19.7533 35.64 19.74C36.3067 19.62 36.9133 19.64 37.46 19.8C38.02 19.9467 38.54 20.1933 39.02 20.54C38.9133 20.66 38.88 20.76 38.92 20.84C38.96 20.92 39.0133 20.9933 39.08 21.06C39.1067 21.1 39.14 21.14 39.18 21.18C39.22 21.22 39.2467 21.2667 39.26 21.32ZM28.48 15.3C28.2267 15.4733 27.8867 15.5933 27.46 15.66C27.0333 15.7267 26.5933 15.7733 26.14 15.8C25.6867 15.8267 25.2867 15.8733 24.94 15.94C24.6333 15.9933 24.3467 16.0867 24.08 16.22C23.8133 16.34 23.4867 16.42 23.1 16.46C23.2867 16.82 23.4467 17.1533 23.58 17.46C23.7133 17.7533 23.8733 18.0533 24.06 18.36C24.0467 18.6533 24.0533 18.98 24.08 19.34C24.1067 19.6867 24.1333 20.04 24.16 20.4C24.2 20.8267 24.2267 21.2267 24.24 21.6C24.2667 21.9733 24.2667 22.28 24.24 22.52C24.3067 22.4933 24.34 22.5067 24.34 22.56C24.3533 22.6133 24.36 22.6733 24.36 22.74C24.5067 22.66 24.68 22.62 24.88 22.62C25.08 22.6067 25.2667 22.5733 25.44 22.52C25.6533 22.4533 25.78 22.32 25.82 22.12L25.76 22.18C25.7733 21.9667 25.8 21.7333 25.84 21.48C25.8933 21.2133 25.9467 20.9333 26 20.64C26.0933 20.12 26.1733 19.5867 26.24 19.04C26.32 18.4933 26.32 18 26.24 17.56C26.2133 17.44 26.18 17.3267 26.14 17.22C26.1 17.1133 26.06 17.0133 26.02 16.92C25.9533 16.7467 25.9 16.5867 25.86 16.44C25.82 16.28 25.84 16.1267 25.92 15.98C26.4267 15.9267 26.8467 16.0933 27.18 16.48C27.5267 16.8533 27.7867 17.2733 27.96 17.74C27.7733 18.18 27.6333 18.6667 27.54 19.2C27.4467 19.72 27.3667 20.24 27.3 20.76C27.2333 21.28 27.1467 21.7533 27.04 22.18C27.24 22.3133 27.46 22.4133 27.7 22.48C27.9533 22.5467 28.2067 22.6533 28.46 22.8C28.38 23.0533 28.2267 23.2067 28 23.26C27.7867 23.3133 27.5667 23.3467 27.34 23.36C27.2733 23.3733 27.2067 23.38 27.14 23.38C27.0867 23.38 27.0333 23.3867 26.98 23.4C26.4733 23.4667 25.9467 23.58 25.4 23.74C24.8667 23.9 24.3667 24.1 23.9 24.34C23.4467 24.5667 23.0667 24.8333 22.76 25.14C22.4 25.22 22.06 25.18 21.74 25.02C21.42 24.8467 21.16 24.5933 20.96 24.26C20.76 23.9133 20.66 23.5333 20.66 23.12C20.8067 23.12 20.9533 23.12 21.1 23.12C21.2467 23.12 21.3867 23.1267 21.52 23.14C21.84 23.1667 22.16 23.18 22.48 23.18C22.8 23.1667 23.14 23.0933 23.5 22.96C23.4467 22.8 23.3533 22.66 23.22 22.54C23.1 22.4067 22.9867 22.26 22.88 22.1C22.7733 21.94 22.7133 21.7333 22.7 21.48C22.7 21.3867 22.7267 21.3133 22.78 21.26C22.8333 21.2067 22.8667 21.1333 22.88 21.04C22.9067 20.92 22.9133 20.8 22.9 20.68C22.8867 20.5467 22.8733 20.4133 22.86 20.28C22.8467 20.2133 22.8333 20.1467 22.82 20.08C22.8067 20 22.8 19.92 22.8 19.84C22.7867 19.28 22.76 18.7067 22.72 18.12C22.68 17.5333 22.6467 17.0267 22.62 16.6C22.5933 16.6 22.5533 16.6 22.5 16.6C22.4467 16.6133 22.3867 16.62 22.32 16.62C22.2533 16.6067 22.1933 16.5867 22.14 16.56C21.94 16.44 21.72 16.3067 21.48 16.16C21.2533 16.0133 21.06 15.8533 20.9 15.68C20.74 15.5067 20.66 15.3333 20.66 15.16C20.7933 15.1333 20.8933 15.0667 20.96 14.96C21.0267 14.8533 21.1067 14.7667 21.2 14.7C21.36 14.6867 21.5133 14.7067 21.66 14.76C21.82 14.8 21.98 14.8533 22.14 14.92C22.2467 14.9733 22.3533 15.02 22.46 15.06C22.58 15.1 22.7 15.1333 22.82 15.16C22.9933 15.1867 23.1867 15.18 23.4 15.14C23.6267 15.1 23.8667 15.0467 24.12 14.98C24.3333 14.9267 24.5467 14.88 24.76 14.84C24.9867 14.7867 25.2 14.76 25.4 14.76L25.38 12.98C25.06 12.82 24.7733 12.64 24.52 12.44C24.2667 12.24 24.08 12 23.96 11.72C24.1067 11.5467 24.3267 11.4333 24.62 11.38C24.9133 11.3133 25.22 11.2933 25.54 11.32C25.8733 11.3333 26.1467 11.38 26.36 11.46C26.36 11.5667 26.3933 11.6333 26.46 11.66C26.5267 11.6867 26.5933 11.7133 26.66 11.74C26.6867 11.9933 26.6667 12.3133 26.6 12.7C26.5333 13.0733 26.4333 13.4333 26.3 13.78C26.2467 13.9533 26.1533 14.1467 26.02 14.36C25.9 14.5733 25.84 14.68 25.84 14.68C26.3333 14.4933 26.8333 14.4533 27.34 14.56C27.8467 14.6667 28.2267 14.9133 28.48 15.3ZM37.94 12.82C37.7533 13.3533 37.5867 13.92 37.44 14.52C37.2933 15.1067 37.1267 15.7133 36.94 16.34C36.46 16.2733 35.8533 16.2467 35.12 16.26C34.3867 16.26 33.5867 16.2933 32.72 16.36C32.3467 16.3867 31.96 16.4133 31.56 16.44C31.1733 16.4533 30.8467 16.5067 30.58 16.6C30.4733 16.64 30.3733 16.7067 30.28 16.8C30.1867 16.8933 30.0867 16.9533 29.98 16.98C29.5267 17.0733 29.12 16.9733 28.76 16.68C28.4133 16.3733 28.2 16.0333 28.12 15.66C28.2 15.5933 28.32 15.5667 28.48 15.58C28.64 15.58 28.7667 15.6 28.86 15.64C28.8733 15.5067 28.8733 15.32 28.86 15.08C28.86 14.84 28.8533 14.6067 28.84 14.38C28.8267 14.14 28.8067 13.9667 28.78 13.86C28.58 13.6333 28.4267 13.42 28.32 13.22C28.2133 13.02 28.1133 12.7533 28.02 12.42C28.3133 12.22 28.6067 12.1533 28.9 12.22C29.1933 12.2867 29.4667 12.42 29.72 12.62C29.9867 12.8067 30.2 12.9933 30.36 13.18C30.36 13.1933 30.3533 13.22 30.34 13.26C30.2733 13.5933 30.22 13.9133 30.18 14.22C30.14 14.5133 30.1267 14.86 30.14 15.26C30.4333 15.3133 30.7867 15.3333 31.2 15.32C31.6267 15.3067 31.9867 15.2733 32.28 15.22C32.3333 14.7133 32.3733 14.1733 32.4 13.6C32.4267 13.0133 32.3733 12.4867 32.24 12.02C32.1467 11.6733 31.9867 11.3933 31.76 11.18C31.5333 10.9533 31.3733 10.7067 31.28 10.44C31.4533 10.28 31.68 10.2 31.96 10.2C32.24 10.1867 32.52 10.2333 32.8 10.34C33.0933 10.4333 33.34 10.5667 33.54 10.74C33.7533 10.9 33.8667 11.0733 33.88 11.26C33.9067 11.5 33.9 11.7667 33.86 12.06C33.82 12.3533 33.78 12.6667 33.74 13C33.6867 13.3467 33.6333 13.7067 33.58 14.08C33.54 14.44 33.5333 14.7867 33.56 15.12C33.6667 15.1333 33.78 15.14 33.9 15.14C34.0333 15.1267 34.1667 15.1133 34.3 15.1C34.54 15.0733 34.78 15.06 35.02 15.06C35.26 15.06 35.4667 15.12 35.64 15.24C35.84 14.84 35.92 14.42 35.88 13.98C35.8533 13.5267 35.7667 13.1 35.62 12.7C35.4733 12.3 35.34 11.98 35.22 11.74C35.54 11.5667 35.88 11.5267 36.24 11.62C36.6 11.7 36.9333 11.8533 37.24 12.08C37.5467 12.3067 37.78 12.5533 37.94 12.82ZM36.2 21.02C35.9867 20.86 35.7533 20.7867 35.5 20.8C35.2467 20.8 34.98 20.8267 34.7 20.88C34.6333 20.8933 34.5867 20.9 34.56 20.9C34.7067 21.2333 34.7667 21.6267 34.74 22.08C34.7133 22.5333 34.6733 23 34.62 23.48C34.5667 23.8133 34.52 24.1467 34.48 24.48C34.4533 24.8133 34.46 25.1267 34.5 25.42C34.8733 25.6067 35.1733 25.6733 35.4 25.62C35.6267 25.5667 35.8067 25.4333 35.94 25.22C36.1267 24.9133 36.24 24.5067 36.28 24C36.32 23.48 36.3267 22.9533 36.3 22.42C36.2733 21.8733 36.24 21.4067 36.2 21.02Z" fill="#0095FF"/>
<path d="M45.984 12.62C46 12.996 45.96 13.328 45.864 13.616C45.776 13.904 45.616 14.152 45.384 14.36C45 14.264 44.628 14.14 44.268 13.988C43.916 13.828 43.528 13.696 43.104 13.592C43.104 13.48 43.032 13.38 42.888 13.292C42.752 13.204 42.624 13.136 42.504 13.088C42.512 13.032 42.496 12.992 42.456 12.968C42.424 12.944 42.384 12.924 42.336 12.908C42.32 12.9 42.308 12.896 42.3 12.896C42.284 12.84 42.264 12.796 42.24 12.764C42.216 12.724 42.192 12.688 42.168 12.656C42.12 12.584 42.1 12.532 42.108 12.5C42.156 12.516 42.208 12.532 42.264 12.548C42.32 12.564 42.372 12.58 42.42 12.596C42.716 12.692 43.04 12.78 43.392 12.86C43.744 12.94 44.148 12.964 44.604 12.932C44.732 12.732 44.816 12.496 44.856 12.224C44.896 11.944 44.912 11.64 44.904 11.312C44.896 10.936 44.876 10.54 44.844 10.124C44.82 9.7 44.808 9.28 44.808 8.864C44.808 8.52 44.796 8.164 44.772 7.796C44.756 7.42 44.728 7.064 44.688 6.728C44.648 6.384 44.596 6.088 44.532 5.84C44.524 5.8 44.5 5.788 44.46 5.804C44.42 5.812 44.392 5.8 44.376 5.768C44.368 5.712 44.34 5.656 44.292 5.6C44.252 5.544 44.208 5.488 44.16 5.432C44.096 5.368 44.04 5.304 43.992 5.24C43.944 5.168 43.932 5.096 43.956 5.024C44.012 4.96 44.092 4.94 44.196 4.964C44.3 4.98 44.388 5.008 44.46 5.048C44.508 5.032 44.56 5.02 44.616 5.012C44.672 4.996 44.72 4.976 44.76 4.952C44.912 4.992 45.08 5.048 45.264 5.12C45.448 5.184 45.608 5.268 45.744 5.372C45.88 5.468 45.956 5.58 45.972 5.708C45.996 5.908 46.004 6.116 45.996 6.332C45.988 6.548 45.972 6.776 45.948 7.016C45.94 7.08 45.932 7.152 45.924 7.232C45.924 7.304 45.92 7.376 45.912 7.448C45.904 7.552 45.884 7.652 45.852 7.748C45.82 7.844 45.8 7.944 45.792 8.048C45.784 8.176 45.78 8.3 45.78 8.42C45.78 8.532 45.78 8.652 45.78 8.78C45.788 8.844 45.792 8.912 45.792 8.984C45.792 9.048 45.792 9.116 45.792 9.188C45.792 9.54 45.8 9.88 45.816 10.208C45.84 10.528 45.864 10.852 45.888 11.18C45.904 11.404 45.92 11.636 45.936 11.876C45.96 12.116 45.976 12.364 45.984 12.62ZM42.144 10.088C42.032 10.248 41.936 10.428 41.856 10.628C41.784 10.82 41.708 11.012 41.628 11.204C41.548 11.396 41.444 11.568 41.316 11.72C41.196 11.872 41.036 11.984 40.836 12.056C40.66 11.896 40.496 11.724 40.344 11.54C40.2 11.348 40.08 11.128 39.984 10.88C40.208 10.8 40.384 10.676 40.512 10.508C40.648 10.34 40.768 10.156 40.872 9.956C40.984 9.748 41.096 9.544 41.208 9.344C41.32 9.136 41.476 8.972 41.676 8.852C41.82 8.908 41.924 9.008 41.988 9.152C42.052 9.296 42.092 9.452 42.108 9.62C42.132 9.788 42.144 9.944 42.144 10.088ZM50.424 11.012C50.432 11.1 50.404 11.216 50.34 11.36C50.276 11.496 50.208 11.58 50.136 11.612C50.12 11.62 50.072 11.62 49.992 11.612C49.912 11.604 49.856 11.596 49.824 11.588C49.552 11.492 49.316 11.288 49.116 10.976C48.916 10.656 48.728 10.324 48.552 9.98C48.416 9.7 48.276 9.436 48.132 9.188C47.996 8.94 47.836 8.76 47.652 8.648C47.884 8.6 48.116 8.62 48.348 8.708C48.58 8.796 48.804 8.92 49.02 9.08C49.244 9.24 49.456 9.4 49.656 9.56C49.72 9.608 49.784 9.66 49.848 9.716C49.912 9.764 49.972 9.808 50.028 9.848C50.036 9.96 50.072 10.084 50.136 10.22C50.2 10.348 50.26 10.48 50.316 10.616C50.38 10.752 50.416 10.884 50.424 11.012ZM62.244 10.088C62.18 10.16 62.104 10.224 62.016 10.28C61.936 10.336 61.844 10.38 61.74 10.412C61.716 10.604 61.672 10.812 61.608 11.036C61.552 11.252 61.5 11.448 61.452 11.624C61.412 11.76 61.38 11.924 61.356 12.116C61.332 12.308 61.296 12.492 61.248 12.668C61.208 12.844 61.14 12.976 61.044 13.064C61.084 13.16 61.144 13.24 61.224 13.304C61.304 13.36 61.372 13.428 61.428 13.508C61.356 13.66 61.228 13.74 61.044 13.748C60.86 13.748 60.672 13.736 60.48 13.712C60.424 13.704 60.368 13.696 60.312 13.688C60.264 13.68 60.216 13.676 60.168 13.676C60.032 13.668 59.848 13.668 59.616 13.676C59.392 13.684 59.156 13.7 58.908 13.724C58.66 13.748 58.432 13.78 58.224 13.82C58.016 13.852 57.864 13.896 57.768 13.952C57.768 13.952 57.752 13.98 57.72 14.036C57.688 14.092 57.652 14.128 57.612 14.144C57.404 14.08 57.212 13.968 57.036 13.808C56.868 13.64 56.8 13.424 56.832 13.16C56.848 13.104 56.876 13.068 56.916 13.052C56.964 13.028 57 12.996 57.024 12.956C57.008 12.836 57 12.704 57 12.56C57.008 12.416 57.016 12.264 57.024 12.104C57.032 11.872 57.036 11.636 57.036 11.396C57.044 11.156 57.02 10.928 56.964 10.712C56.948 10.656 56.928 10.604 56.904 10.556C56.88 10.508 56.852 10.46 56.82 10.412C56.772 10.324 56.732 10.24 56.7 10.16C56.676 10.072 56.696 9.988 56.76 9.908C56.752 9.828 56.716 9.788 56.652 9.788C56.596 9.78 56.556 9.756 56.532 9.716C56.54 9.66 56.56 9.632 56.592 9.632C56.632 9.624 56.672 9.62 56.712 9.62C56.744 9.628 56.776 9.632 56.808 9.632C56.84 9.632 56.864 9.62 56.88 9.596C56.96 9.676 57.08 9.716 57.24 9.716C57.424 9.716 57.636 9.68 57.876 9.608C58.116 9.536 58.332 9.496 58.524 9.488C58.532 9.336 58.536 9.192 58.536 9.056C58.536 8.92 58.536 8.784 58.536 8.648C58.536 8.464 58.536 8.272 58.536 8.072C58.544 7.872 58.556 7.64 58.572 7.376C58.548 7.368 58.508 7.36 58.452 7.352C58.396 7.336 58.348 7.304 58.308 7.256C58.324 7.2 58.356 7.172 58.404 7.172C58.46 7.164 58.504 7.152 58.536 7.136C58.536 7.024 58.532 6.924 58.524 6.836C58.524 6.748 58.52 6.664 58.512 6.584C58.504 6.496 58.496 6.408 58.488 6.32C58.488 6.232 58.488 6.128 58.488 6.008C58.328 5.872 58.216 5.716 58.152 5.54C58.096 5.356 58 5.18 57.864 5.012C57.888 4.996 57.916 4.972 57.948 4.94C57.996 4.908 58.04 4.88 58.08 4.856C58.128 4.832 58.196 4.832 58.284 4.856C58.388 4.96 58.512 5.044 58.656 5.108C58.8 5.172 58.94 5.24 59.076 5.312C59.22 5.384 59.328 5.492 59.4 5.636C59.4 5.74 59.396 5.844 59.388 5.948C59.388 6.044 59.388 6.14 59.388 6.236C59.38 6.38 59.372 6.52 59.364 6.656C59.364 6.784 59.368 6.912 59.376 7.04C59.616 7 59.868 6.968 60.132 6.944C60.396 6.92 60.616 6.852 60.792 6.74C60.904 6.796 61.036 6.844 61.188 6.884C61.348 6.924 61.5 6.976 61.644 7.04C61.796 7.096 61.92 7.18 62.016 7.292C61.808 7.42 61.584 7.496 61.344 7.52C61.112 7.544 60.872 7.56 60.624 7.568C60.432 7.568 60.24 7.572 60.048 7.58C59.856 7.588 59.66 7.62 59.46 7.676C59.38 7.9 59.336 8.16 59.328 8.456C59.32 8.752 59.292 9.068 59.244 9.404C59.484 9.452 59.748 9.46 60.036 9.428C60.324 9.396 60.544 9.328 60.696 9.224C60.76 9.232 60.82 9.248 60.876 9.272C60.94 9.288 61 9.308 61.056 9.332C61.16 9.364 61.264 9.396 61.368 9.428C61.48 9.452 61.604 9.46 61.74 9.452C61.796 9.548 61.856 9.62 61.92 9.668C61.992 9.708 62.056 9.756 62.112 9.812C62.176 9.86 62.22 9.952 62.244 10.088ZM56.736 7.832C56.624 7.848 56.472 7.872 56.28 7.904C56.096 7.936 55.928 7.964 55.776 7.988C55.632 8.012 55.56 8.024 55.56 8.024C55.792 8.152 55.956 8.288 56.052 8.432C56.156 8.576 56.212 8.748 56.22 8.948C56.236 9.14 56.224 9.384 56.184 9.68C56.144 10.016 56.08 10.32 55.992 10.592C55.904 10.864 55.824 11.164 55.752 11.492C55.832 11.548 55.94 11.588 56.076 11.612C56.212 11.628 56.34 11.656 56.46 11.696C56.588 11.728 56.672 11.804 56.712 11.924C56.52 12.124 56.268 12.256 55.956 12.32C55.652 12.384 55.336 12.436 55.008 12.476C54.712 12.516 54.424 12.568 54.144 12.632C53.864 12.696 53.624 12.816 53.424 12.992L53.124 13.004C53.068 13.02 53.036 13.068 53.028 13.148C53.028 13.228 53.008 13.288 52.968 13.328C52.72 13.376 52.504 13.36 52.32 13.28C52.144 13.2 51.996 13.08 51.876 12.92C51.756 12.76 51.66 12.592 51.588 12.416C51.86 12.432 52.1 12.416 52.308 12.368C52.524 12.32 52.732 12.264 52.932 12.2C53.076 12.16 53.22 12.12 53.364 12.08C53.508 12.04 53.664 12.012 53.832 11.996C53.816 11.964 53.784 11.924 53.736 11.876C53.688 11.82 53.636 11.764 53.58 11.708C53.5 11.628 53.424 11.552 53.352 11.48C53.288 11.4 53.256 11.344 53.256 11.312C53.28 11.048 53.28 10.748 53.256 10.412C53.24 10.068 53.212 9.728 53.172 9.392C53.132 9.056 53.088 8.764 53.04 8.516C53.28 8.588 53.468 8.716 53.604 8.9C53.74 9.076 53.844 9.284 53.916 9.524C54.028 9.884 54.084 10.276 54.084 10.7C54.092 11.124 54.112 11.512 54.144 11.864C54.224 11.872 54.312 11.868 54.408 11.852C54.512 11.828 54.62 11.804 54.732 11.78C54.796 11.764 54.856 11.748 54.912 11.732C54.976 11.716 55.036 11.704 55.092 11.696C55.228 11.28 55.312 10.788 55.344 10.22C55.384 9.652 55.432 9.088 55.488 8.528C55.48 8.496 55.456 8.456 55.416 8.408C55.392 8.36 55.368 8.312 55.344 8.264C55.328 8.208 55.336 8.136 55.368 8.048C54.944 8.088 54.516 8.16 54.084 8.264C53.66 8.368 53.296 8.44 52.992 8.48C52.944 8.496 52.904 8.52 52.872 8.552C52.84 8.584 52.804 8.612 52.764 8.636C52.612 8.596 52.488 8.532 52.392 8.444C52.296 8.348 52.208 8.244 52.128 8.132C52.048 8.02 51.952 7.924 51.84 7.844C51.952 7.772 52.088 7.736 52.248 7.736C52.408 7.728 52.54 7.764 52.644 7.844C52.812 7.796 53.024 7.748 53.28 7.7C53.536 7.644 53.804 7.588 54.084 7.532C54.364 7.476 54.624 7.424 54.864 7.376C54.928 7.312 54.964 7.216 54.972 7.088C54.988 6.952 54.988 6.812 54.972 6.668C54.964 6.516 54.948 6.392 54.924 6.296C54.916 6.296 54.9 6.288 54.876 6.272C54.844 6.256 54.808 6.24 54.768 6.224C54.736 6.208 54.7 6.204 54.66 6.212C54.604 6.092 54.528 6.016 54.432 5.984C54.344 5.944 54.256 5.896 54.168 5.84C54.08 5.776 54.012 5.648 53.964 5.456C54.164 5.432 54.372 5.42 54.588 5.42C54.812 5.412 55.02 5.44 55.212 5.504C55.412 5.56 55.572 5.672 55.692 5.84C55.628 6.04 55.572 6.252 55.524 6.476C55.484 6.7 55.452 6.932 55.428 7.172C55.468 7.18 55.512 7.192 55.56 7.208C55.616 7.216 55.672 7.224 55.728 7.232C55.872 7.264 56.02 7.3 56.172 7.34C56.332 7.38 56.464 7.44 56.568 7.52C56.68 7.592 56.736 7.696 56.736 7.832ZM60.516 10.028C60.156 9.972 59.804 9.964 59.46 10.004C59.116 10.044 58.776 10.092 58.44 10.148C58.312 10.172 58.184 10.196 58.056 10.22C57.936 10.236 57.812 10.252 57.684 10.268C57.7 10.7 57.72 11.172 57.744 11.684C57.776 12.188 57.804 12.688 57.828 13.184C58.124 13.144 58.424 13.116 58.728 13.1C59.04 13.084 59.336 13.056 59.616 13.016C59.896 12.976 60.144 12.904 60.36 12.8C60.448 12.48 60.496 12.116 60.504 11.708C60.52 11.3 60.524 10.9 60.516 10.508C60.516 10.428 60.516 10.348 60.516 10.268C60.516 10.188 60.516 10.108 60.516 10.028Z" fill="#FF3D71"/>
<path d="M64.5 9C64.5 10.9614 63.1553 12.8256 60.791 14.2267C58.4377 15.6213 55.154 16.5 51.5 16.5C47.846 16.5 44.5623 15.6213 42.209 14.2267C39.8447 12.8256 38.5 10.9614 38.5 9C38.5 7.03858 39.8447 5.17436 42.209 3.77329C44.5623 2.37871 47.846 1.5 51.5 1.5C55.154 1.5 58.4377 2.37871 60.791 3.77329C63.1553 5.17436 64.5 7.03858 64.5 9Z" stroke="#FF3D71"/>
</svg>
